<?xml version="1.0" standalone="no"?>
<!DOCTYPE svg PUBLIC "-//W3C//DTD SVG 20010904//EN"
 "http://www.w3.org/TR/2001/REC-SVG-20010904/DTD/svg10.dtd">
<svg version="1.0" xmlns="http://www.w3.org/2000/svg"
 width="365.000000pt" height="365.000000pt" viewBox="0 0 365.000000 365.000000"
 preserveAspectRatio="xMidYMid meet">
<metadata>
Created by potrace 1.11, written by Peter Selinger 2001-2013
</metadata>
<g transform="translate(0.000000,365.000000) scale(0.100000,-0.100000)"
fill="#000000" stroke="none">
<path d="M1885 3424 l-30 -34 -110 -5 c-327 -14 -586 -144 -717 -360 -77 -127
-111 -248 -128 -456 -13 -146 -5 -257 31 -424 21 -96 76 -283 88 -300 5 -5 25
-55 46 -110 84 -219 242 -499 400 -710 94 -126 253 -305 270 -305 6 0 16 5 22
11 9 9 -14 39 -86 119 -517 569 -818 1379 -704 1895 56 252 196 425 423 521
82 34 235 68 368 81 82 8 84 8 117 -20 19 -15 37 -36 40 -47 8 -25 35 -26 35
-2 0 10 -7 27 -15 38 -8 10 -15 22 -15 25 -1 22 273 -31 374 -73 184 -75 322
-224 385 -415 42 -124 55 -231 49 -395 -5 -125 -4 -140 12 -148 15 -8 19 -3
25 37 4 26 7 110 7 188 -1 452 -218 739 -625 825 -51 10 -122 22 -159 25 -38
4 -68 10 -68 13 0 4 7 16 15 26 37 49 -8 48 -50 0z"/>
<path d="M1515 2315 c-153 -16 -301 -42 -427 -76 -40 -10 -43 -15 -29 -38 8
-12 22 -11 93 7 603 151 1364 79 1818 -172 350 -194 511 -468 464 -791 -49
-336 -298 -702 -569 -837 -108 -54 -197 -72 -324 -65 -169 10 -313 63 -499
183 -69 45 -86 52 -102 44 -11 -6 -20 -13 -20 -15 0 -2 38 -29 84 -60 223
-148 430 -212 631 -195 111 10 168 26 265 75 181 91 350 278 468 518 115 235
146 458 92 657 -76 281 -362 527 -768 659 -166 55 -332 85 -601 111 -137 13
-427 11 -576 -5z"/>
<path d="M708 2096 c-336 -173 -507 -393 -533 -687 -22 -247 109 -581 324
-828 104 -119 256 -221 386 -258 130 -38 316 -31 460 16 71 23 240 102 299
139 297 191 612 566 836 996 80 152 154 329 198 473 38 119 38 119 12 126 -17
4 -23 -6 -46 -82 -230 -755 -804 -1450 -1334 -1615 -179 -56 -361 -45 -515 32
-271 135 -520 501 -569 837 -49 335 130 622 504 810 52 27 96 49 98 50 1 1 -1
12 -6 24 -7 21 -10 20 -114 -33z"/>
</g>
</svg>
